<?xml version="1.0" encoding="UTF-8"?>
<!-- Generated by Pixelmator Pro 3.2.3 -->
<svg width="40" height="40" viewBox="0 0 40 40" xmlns="http://www.w3.org/2000/svg" xmlns:xlink="http://www.w3.org/1999/xlink">
    <linearGradient id="linearGradient1" x1="2.26667" y1="1e-06" x2="59.393744" y2="17.6727" gradientUnits="userSpaceOnUse">
        <stop offset="0.259336" stop-color="#ffdb6e" stop-opacity="1"/>
        <stop offset="1" stop-color="#ffbc5e" stop-opacity="1"/>
    </linearGradient>
    <path id="Path" fill="url(#linearGradient1)" fill-rule="evenodd" stroke="none" d="M 20 0 C 8.95 0 0 9.17638 0 20.505877 C 0 29.579727 5.725 37.243797 13.674999 39.960827 C 14.674999 40.140255 15.05 39.525078 15.05 38.986797 C 15.05 38.499786 15.025001 36.884945 15.025001 35.16758 C 10 36.115974 8.7 33.911591 8.3 32.758137 C 8.075 32.168594 7.1 30.348698 6.25 29.861683 C 5.55 29.477198 4.55 28.528801 6.225 28.503168 C 7.8 28.477535 8.925 29.989845 9.3 30.605019 C 11.1 33.706535 13.975 32.835037 15.125 32.296757 C 15.299999 30.963875 15.825 30.066742 16.4 29.554094 C 11.950001 29.041447 7.3 27.272816 7.3 19.429317 C 7.3 17.199305 8.075 15.353775 9.35 13.918365 C 9.150001 13.405716 8.450001 11.303864 9.55 8.484304 C 9.55 8.484304 11.224999 7.94603 15.05 10.586159 C 16.65 10.124777 18.35 9.894085 20.050001 9.894085 C 21.75 9.894085 23.450001 10.124777 25.050001 10.586159 C 28.875 7.920395 30.550001 8.484304 30.550001 8.484304 C 31.65 11.303864 30.950001 13.405716 30.75 13.918365 C 32.025002 15.353775 32.799999 17.173672 32.799999 19.429317 C 32.799999 27.298447 28.125 29.041447 23.675001 29.554094 C 24.400002 30.194902 25.025002 31.425257 25.025002 33.347683 C 25.025002 36.090343 25 38.294724 25 38.986797 C 25 39.525078 25.375 40.165886 26.375 39.960827 C 34.275002 37.243797 40 29.554094 40 20.505877 C 40 9.17638 31.049999 0 20 0 Z"/>
</svg>
